ffmpeg version 6.1.1-3ubuntu5 Copyright (c) 2000-2023 the FFmpeg developers
  built with gcc 13 (Ubuntu 13.2.0-23ubuntu3)
  configuration: --prefix=/usr --extra-version=3ubuntu5 --toolchain=hardened --libdir=/usr/lib/x86_64-linux-gnu --incdir=/usr/include/x86_64-linux-gnu --arch=amd64 --enable-gpl --disable-stripping --disable-omx --enable-gnutls --enable-libaom --enable-libass --enable-libbs2b --enable-libcaca --enable-libcdio --enable-libcodec2 --enable-libdav1d --enable-libflite --enable-libfontconfig --enable-libfreetype --enable-libfribidi --enable-libglslang --enable-libgme --enable-libgsm --enable-libharfbuzz --enable-libmp3lame --enable-libmysofa --enable-libopenjpeg --enable-libopenmpt --enable-libopus --enable-librubberband --enable-libshine --enable-libsnappy --enable-libsoxr --enable-libspeex --enable-libtheora --enable-libtwolame --enable-libvidstab --enable-libvorbis --enable-libvpx --enable-libwebp --enable-libx265 --enable-libxml2 --enable-libxvid --enable-libzimg --enable-openal --enable-opencl --enable-opengl --disable-sndio --enable-libvpl --disable-libmfx --enable-libdc1394 --enable-libdrm --enable-libiec61883 --enable-chromaprint --enable-frei0r --enable-ladspa --enable-libbluray --enable-libjack --enable-libpulse --enable-librabbitmq --enable-librist --enable-libsrt --enable-libssh --enable-libsvtav1 --enable-libx264 --enable-libzmq --enable-libzvbi --enable-lv2 --enable-sdl2 --enable-libplacebo --enable-librav1e --enable-pocketsphinx --enable-librsvg --enable-libjxl --enable-shared
  libavutil      58. 29.100 / 58. 29.100
  libavcodec     60. 31.102 / 60. 31.102
  libavformat    60. 16.100 / 60. 16.100
  libavdevice    60.  3.100 / 60.  3.100
  libavfilter     9. 12.100 /  9. 12.100
  libswscale      7.  5.100 /  7.  5.100
  libswresample   4. 12.100 /  4. 12.100
  libpostproc    57.  3.100 / 57.  3.100
[x11grab @ 0x55c245703540] Stream #0: not enough frames to estimate rate; consider increasing probesize
Input #0, x11grab, from ':1+0,0':
  Duration: N/A, start: 1781266973.339149, bitrate: 884736 kb/s
  Stream #0:0: Video: rawvideo (BGR[0] / 0x524742), bgr0, 1280x720, 884736 kb/s, 30 fps, 1000k tbr, 1000k tbn
Stream mapping:
  Stream #0:0 -> #0:0 (rawvideo (native) -> h264 (libx264))
Press [q] to stop, [?] for help
[libx264 @ 0x55c24570c280] using cpu capabilities: MMX2 SSE2Fast SSSE3 SSE4.2 AVX FMA3 BMI2 AVX2 AVX512
[libx264 @ 0x55c24570c280] profile High, level 3.1, 4:2:0, 8-bit
[libx264 @ 0x55c24570c280] 264 - core 164 r3108 31e19f9 - H.264/MPEG-4 AVC codec - Copyleft 2003-2023 - http://www.videolan.org/x264.html - options: cabac=1 ref=3 deblock=1:0:0 analyse=0x3:0x113 me=hex subme=7 psy=1 psy_rd=1.00:0.00 mixed_ref=1 me_range=16 chroma_me=1 trellis=1 8x8dct=1 cqm=0 deadzone=21,11 fast_pskip=1 chroma_qp_offset=-2 threads=6 lookahead_threads=1 sliced_threads=0 nr=0 decimate=1 interlaced=0 bluray_compat=0 constrained_intra=0 bframes=3 b_pyramid=2 b_adapt=1 b_bias=0 direct=1 weightb=1 open_gop=0 weightp=2 keyint=250 keyint_min=15 scenecut=40 intra_refresh=0 rc_lookahead=40 rc=crf mbtree=1 crf=32.0 qcomp=0.60 qpmin=0 qpmax=69 qpstep=4 ip_ratio=1.40 aq=1:1.00
Output #0, mp4, to '../../evidence/participant.mp4':
  Metadata:
    encoder         : Lavf60.16.100
  Stream #0:0: Video: h264 (avc1 / 0x31637661), yuv420p(tv, progressive), 1280x720, q=2-31, 15 fps, 15360 tbn
    Metadata:
      encoder         : Lavc60.31.102 libx264
    Side data:
      cpb: bitrate max/min/avg: 0/0/0 buffer size: 0 vbv_delay: N/A
frame=    0 fps=0.0 q=0.0 size=       0kB time=N/A bitrate=N/A speed=N/A    frame=    0 fps=0.0 q=0.0 size=       0kB time=N/A bitrate=N/A speed=N/A    frame=    0 fps=0.0 q=0.0 size=       0kB time=N/A bitrate=N/A speed=N/A    frame=    0 fps=0.0 q=0.0 size=       0kB time=N/A bitrate=N/A speed=N/A    frame=    0 fps=0.0 q=0.0 size=       0kB time=N/A bitrate=N/A speed=N/A    frame=    0 fps=0.0 q=0.0 size=       0kB time=N/A bitrate=N/A speed=N/A    frame=    0 fps=0.0 q=0.0 size=       0kB time=N/A bitrate=N/A speed=N/A    frame=    4 fps=1.1 q=36.0 size=       0kB time=00:00:00.13 bitrate=   2.9kbits/s speed=0.0374x    frame=   12 fps=2.9 q=36.0 size=       0kB time=00:00:00.60 bitrate=   0.6kbits/s speed=0.146x    frame=   20 fps=4.3 q=36.0 size=       0kB time=00:00:01.20 bitrate=   0.3kbits/s speed=0.259x    frame=   28 fps=5.4 q=36.0 size=       0kB time=00:00:01.66 bitrate=   0.2kbits/s speed=0.323x    frame=   36 fps=6.4 q=36.0 size=       0kB time=00:00:02.20 bitrate=   0.2kbits/s speed=0.388x    frame=   44 fps=7.1 q=36.0 size=       0kB time=00:00:02.73 bitrate=   0.1kbits/s speed=0.441x    frame=   51 fps=7.6 q=36.0 size=       0kB time=00:00:03.26 bitrate=   0.1kbits/s speed=0.485x    frame=   59 fps=8.2 q=36.0 size=       0kB time=00:00:03.73 bitrate=   0.1kbits/s speed=0.516x    frame=   67 fps=8.6 q=36.0 size=       0kB time=00:00:04.26 bitrate=   0.1kbits/s speed=0.549x    frame=   75 fps=9.0 q=36.0 size=       0kB time=00:00:04.80 bitrate=   0.1kbits/s speed=0.578x    frame=   83 fps=9.4 q=36.0 size=       0kB time=00:00:05.33 bitrate=   0.1kbits/s speed=0.604x    frame=   91 fps=9.7 q=36.0 size=       0kB time=00:00:05.93 bitrate=   0.1kbits/s speed=0.634x    frame=   99 fps= 10 q=36.0 size=       0kB time=00:00:06.40 bitrate=   0.1kbits/s speed=0.647x    frame=  107 fps= 10 q=36.0 size=       0kB time=00:00:06.93 bitrate=   0.1kbits/s speed=0.665x    frame=  115 fps= 10 q=36.0 size=       0kB time=00:00:07.46 bitrate=   0.1kbits/s speed=0.681x    frame=  123 fps= 11 q=36.0 size=       0kB time=00:00:08.00 bitrate=   0.0kbits/s speed=0.696x    frame=  131 fps= 11 q=36.0 size=       0kB time=00:00:08.53 bitrate=   0.0kbits/s speed=0.709x    frame=  139 fps= 11 q=36.0 size=       0kB time=00:00:09.06 bitrate=   0.0kbits/s speed=0.722x    frame=  147 fps= 11 q=36.0 size=       0kB time=00:00:09.60 bitrate=   0.0kbits/s speed=0.733x    frame=  155 fps= 11 q=36.0 size=       0kB time=00:00:10.13 bitrate=   0.0kbits/s speed=0.743x    frame=  163 fps= 12 q=36.0 size=       0kB time=00:00:10.66 bitrate=   0.0kbits/s speed=0.753x    frame=  171 fps= 12 q=36.0 size=       0kB time=00:00:11.20 bitrate=   0.0kbits/s speed=0.762x    frame=  179 fps= 12 q=36.0 size=       0kB time=00:00:11.73 bitrate=   0.0kbits/s speed=0.77x    frame=  187 fps= 12 q=36.0 size=       0kB time=00:00:12.26 bitrate=   0.0kbits/s speed=0.778x    frame=  195 fps= 12 q=36.0 size=       0kB time=00:00:12.80 bitrate=   0.0kbits/s speed=0.785x    [mp4 @ 0x55c24570b740] Starting second pass: moving the moov atom to the beginning of the file
[out#0/mp4 @ 0x55c24570aac0] video:102kB audio:0kB subtitle:0kB other streams:0kB global headers:0kB muxing overhead: 3.656671%
frame=  247 fps= 15 q=-1.0 Lsize=     106kB time=00:00:16.26 bitrate=  53.3kbits/s speed=0.986x    
[libx264 @ 0x55c24570c280] frame I:1     Avg QP:28.07  size: 35708
[libx264 @ 0x55c24570c280] frame P:65    Avg QP:28.16  size:   840
[libx264 @ 0x55c24570c280] frame B:181   Avg QP:39.41  size:    75
[libx264 @ 0x55c24570c280] consecutive B-frames:  1.2%  3.2%  0.0% 95.5%
[libx264 @ 0x55c24570c280] mb I  I16..4: 23.1% 60.7% 16.2%
[libx264 @ 0x55c24570c280] mb P  I16..4:  2.4%  2.1%  0.5%  P16..4:  0.7%  0.1%  0.1%  0.0%  0.0%    skip:94.2%
[libx264 @ 0x55c24570c280] mb B  I16..4:  0.0%  0.1%  0.0%  B16..8:  1.0%  0.0%  0.0%  direct: 0.0%  skip:98.8%  L0:51.8% L1:48.1% BI: 0.1%
[libx264 @ 0x55c24570c280] 8x8 transform intra:49.0% inter:52.2%
[libx264 @ 0x55c24570c280] coded y,uvDC,uvAC intra: 9.9% 14.7% 7.1% inter: 0.0% 0.1% 0.0%
[libx264 @ 0x55c24570c280] i16 v,h,dc,p: 66% 33%  0%  0%
[libx264 @ 0x55c24570c280] i8 v,h,dc,ddl,ddr,vr,hd,vl,hu: 26%  8% 65%  0%  0%  0%  0%  0%  0%
[libx264 @ 0x55c24570c280] i4 v,h,dc,ddl,ddr,vr,hd,vl,hu: 32% 26% 20%  3%  4%  4%  5%  3%  4%
[libx264 @ 0x55c24570c280] i8c dc,h,v,p: 76% 17%  7%  0%
[libx264 @ 0x55c24570c280] Weighted P-Frames: Y:0.0% UV:0.0%
[libx264 @ 0x55c24570c280] ref P L0: 61.4% 10.9% 16.9% 10.8%
[libx264 @ 0x55c24570c280] ref B L0: 63.3% 34.8%  1.9%
[libx264 @ 0x55c24570c280] ref B L1: 95.2%  4.8%
[libx264 @ 0x55c24570c280] kb/s:50.47
Exiting normally, received signal 2.
